<svg xmlns="http://www.w3.org/2000/svg" xmlns:xlink="http://www.w3.org/1999/xlink" width="20" height="20" viewBox="0 0 20 20">
    <path fill="currentColor" d="M10,8.58578644 L14.2928932,4.29289322 C14.6834175,3.90236893 15.3165825,3.90236893 15.7071068,4.29289322 C16.0976311,4.68341751 16.0976311,5.31658249 15.7071068,5.70710678 L11.4142136,10 L15.7071068,14.2928932 C16.0976311,14.6834175 16.0976311,15.3165825 15.7071068,15.7071068 C15.3165825,16.0976311 14.6834175,16.0976311 14.2928932,15.7071068 L10,11.4142136 L5.70710678,15.7071068 C5.31658249,16.0976311 4.68341751,16.0976311 4.29289322,15.7071068 C3.90236893,15.3165825 3.90236893,14.6834175 4.29289322,14.2928932 L8.58578644,10 L4.29289322,5.70710678 C3.90236893,5.31658249 3.90236893,4.68341751 4.29289322,4.29289322 C4.68341751,3.90236893 5.31658249,3.90236893 5.70710678,4.29289322 L10,8.58578644 Z"/>
</svg>
